<svg width="524" height="571" viewBox="0 0 524 571" fill="none" xmlns="http://www.w3.org/2000/svg">
<path d="M83.2514 160.98C59.2585 280.162 -33.7399 307.886 12.9061 393.961C102.879 483.347 306.518 286.783 346.506 243.745C386.494 200.708 323.174 58.3514 259.86 12.003C196.545 -34.3453 103.245 61.6623 83.2514 160.98Z" fill="#6904CA" fill-opacity="0.5"/>
<path d="M128.546 398.814C98.7069 547 265.315 390.581 323.328 497.605C435.226 608.745 451.733 574.273 501.465 520.762C551.197 467.251 513.971 386.465 435.228 328.837C356.485 271.209 153.413 275.325 128.546 398.814Z" fill="#00E6E3" fill-opacity="0.31"/>
<path fill-rule="evenodd" clip-rule="evenodd" d="M154.328 237.295V121.221H199.175V121.354H392.945V107.251H309.684V107H139V518H154.328V387.897L154.321 386.808L154.328 263.103L262.755 518H274.677L384.479 260.283L383.672 387.897V518H399V237.51H290.572V237.295H154.328ZM263.765 251.901H165.617L268.811 495.708L371.987 251.942H263.765V251.901Z" fill="white"/>
</svg>
